PathFileType	4	(X/Y/Z)	pose_F01_0-74.trc
DataRate	CameraRate	NumFrames	NumMarkers	Units	OrigDataRate	OrigDataStartFrame	OrigNumFrames
30	30	8	21	m	30	52	74
Frame#	Time	CHip			RHip			RKnee			RAnkle			RBigToe			RSmallToe			RHeel			LHip			LKnee			LAnkle			LBigToe			LSmallToe			LHeel			Neck			Nose			RShoulder			RElbow			RWrist			LShoulder			LElbow			LWrist			
		X1	Y1	Z1	X2	Y2	Z2	X3	Y3	Z3	X4	Y4	Z4	X5	Y5	Z5	X6	Y6	Z6	X7	Y7	Z7	X8	Y8	Z8	X9	Y9	Z9	X10	Y10	Z10	X11	Y11	Z11	X12	Y12	Z12	X13	Y13	Z13	X14	Y14	Z14	X15	Y15	Z15	X16	Y16	Z16	X17	Y17	Z17	X18	Y18	Z18	X19	Y19	Z19	X20	Y20	Z20	X21	Y21	Z21	
52	1.7333333333333334	-0.2701430731961896	1.817863855348637	-0.39266775450698893	-0.28248804479338663	1.8143237031456012	-0.3529777182700581	-0.23568996868515932	1.721160817828959	-0.5603163035697899	-0.2244888295286436	1.567608203881345	-0.5890640500835063	-0.24264769511504852	1.5460580895465732	-0.6377870476963055	-0.24439237972043457	1.5367095976086949	-0.630823515575567	-0.2186146596009567	1.5813509442153366	-0.5935532268689709	-0.254009462263027	1.8224385147627116	-0.44410237808634057	-0.2155954620318903	1.7074009152681788	-0.5934094000686794	-0.21627666166240034	1.5941645523900814	-0.616862509547069	-0.23021826253457997	1.5569008211632052	-0.619952453662403	-0.2206457737593899	1.5636896029046121	-0.6557255165140213	-0.21276590769256737	1.5843985001531642	-0.6147382577701647	-0.2697651185805294	1.9832255375801886	-0.378803952440618	-0.2824441155380004	2.049933344682582	-0.44929521975316805	-0.2949832664113381	1.97742833668111	-0.3223270670082138	-0.3078074756701302	1.8916661655577267	-0.3621493148902883	-0.2846065017978385	1.928726762896794	-0.4742875158183504	-0.24406182755942207	1.9892022660575779	-0.4303169588798894	-0.2274889601731866	1.9221232852001546	-0.48789833939936317	-0.25679636225812863	1.9531500352975735	-0.5034032952250644
53	1.7666666666666666	-0.2647758862156621	1.8195383117270985	-0.4160593606598189	-0.27809809058988577	1.816150836484195	-0.36938319348498244	-0.23568996868515932	1.721160817828959	-0.5603163035697899	-0.2244888295286436	1.567608203881345	-0.5890640500835063	-0.24264769511504852	1.5460580895465732	-0.6377870476963055	-0.24439237972043457	1.5367095976086949	-0.630823515575567	-0.2186146596009567	1.5813509442153366	-0.5935532268689709	-0.247662495696894	1.8248988868887948	-0.4705472322958466	-0.2155954620318903	1.7074009152681788	-0.5934094000686794	-0.21627666166240034	1.5941645523900814	-0.616862509547069	-0.23021826253457997	1.5569008211632052	-0.619952453662403	-0.2206457737593899	1.5636896029046121	-0.6557255165140213	-0.21276590769256737	1.5843985001531642	-0.6147382577701647	-0.2660218153773809	1.9777756469977998	-0.39007689820232266	-0.2777560169356393	2.049141340880313	-0.45893869300565776	-0.29042995620515716	1.9724546249225026	-0.330584924702366	-0.3060373686062703	1.8872855713489296	-0.3635489304891068	-0.28566698282811603	1.929625688850188	-0.486141057708403	-0.2411380260238757	1.9871172888971624	-0.4540438184132339	-0.21693282464994948	1.92597084036633	-0.5076769251788776	-0.2521704180626785	1.948566332978282	-0.5303284114740529
54	1.8	-0.25940869923513465	1.82121276810556	-0.43945096681264884	-0.2737081363863849	1.8179779698227887	-0.38578866869990674	-0.23568996868515932	1.721160817828959	-0.5603163035697899	-0.2244888295286436	1.567608203881345	-0.5890640500835063	-0.24264769511504852	1.5460580895465732	-0.6377870476963055	-0.24439237972043457	1.5367095976086949	-0.630823515575567	-0.2186146596009567	1.5813509442153366	-0.5935532268689709	-0.241315529130761	1.8273592590148777	-0.49699208650535265	-0.2155954620318903	1.7074009152681788	-0.5934094000686794	-0.21627666166240034	1.5941645523900814	-0.616862509547069	-0.23021826253457997	1.5569008211632052	-0.619952453662403	-0.2206457737593899	1.5636896029046121	-0.6557255165140213	-0.21276590769256737	1.5843985001531642	-0.6147382577701647	-0.2608756048097261	1.9784433027706017	-0.42256763534869324	-0.27487666130960325	2.0488517721217034	-0.47449547927080715	-0.28346764913732114	1.9703215738159503	-0.3473713192347749	-0.2972004995405127	1.8875291728581183	-0.3687413385896769	-0.2812778017958002	1.9248291552588863	-0.4894005430590769	-0.23442493779266946	1.9891917499151204	-0.4924847588175049	-0.21294464265964963	1.9244814392365142	-0.5497066970416686	-0.24210352157585338	1.9445276756958496	-0.5581560461465054
55	1.8333333333333333	-0.2540415122546072	1.8228872244840215	-0.4628425729654788	-0.26931818218288406	1.8198051031613827	-0.4021941439148311	-0.23568996868515932	1.721160817828959	-0.5603163035697899	-0.2244888295286436	1.567608203881345	-0.5890640500835063	-0.24264769511504852	1.5460580895465732	-0.6377870476963055	-0.24439237972043457	1.5367095976086949	-0.630823515575567	-0.2186146596009567	1.5813509442153366	-0.5935532268689709	-0.23496856256462798	1.829819631140961	-0.5234369407148587	-0.2155954620318903	1.7074009152681788	-0.5934094000686794	-0.21627666166240034	1.5941645523900814	-0.616862509547069	-0.23021826253457997	1.5569008211632052	-0.619952453662403	-0.226681687206358	1.548504608656057	-0.5935053261950411	-0.21276590769256737	1.5843985001531642	-0.6147382577701647	-1.8324632703429045	1.8917903506431046	1.3229092210883993	-0.2701135638443695	2.048947633189299	-0.49239702345449876	-0.2792370952586396	1.9707267642710748	-0.3656493774150832	-0.29126028055165326	1.8861296205186415	-0.37476970093147094	-0.2806576452206759	1.9241594561694833	-0.4948831854297703	-0.22928362614313155	1.9914633723989217	-0.5286278996082581	-0.2068040179196951	1.9210394943057576	-0.585171205122471	-1.550646649967234	1.8636360182015537	0.8149654271705944
56	1.8666666666666667	-0.2486743252740797	1.8245616808624832	-0.48623417911830874	-0.2649282279793832	1.8216322364999764	-0.4185996191297554	-0.23568996868515932	1.721160817828959	-0.5603163035697899	-0.2244888295286436	1.567608203881345	-0.5890640500835063	-0.24264769511504852	1.5460580895465732	-0.6377870476963055	-0.24439237972043457	1.5367095976086949	-0.630823515575567	-0.2186146596009567	1.5813509442153366	-0.5935532268689709	-0.23112991818158402	1.827261731642805	-0.5454352918019695	-0.2155954620318903	1.7074009152681788	-0.5934094000686794	-0.21627666166240034	1.5941645523900814	-0.616862509547069	-0.23021826253457997	1.5569008211632052	-0.619952453662403	-0.2261514876662261	1.5484797640230041	-0.5933138338324515	-0.21276590769256737	1.5843985001531642	-0.6147382577701647	-0.24957582527641162	1.979866880093131	-0.4701461955944878	-0.26305477478639894	2.050685578761683	-0.5042688906418612	-0.26906312538414257	1.9698887265263385	-0.3813442191671539	-0.2847068759106103	1.8888353458681721	-0.38721852669697493	-0.28204952178487874	1.9207235773041176	-0.49799418843807064	-0.2238249168251215	1.992403856271836	-0.5558043455961665	-0.20693999044045883	1.920912051746753	-0.6146850411553797	-0.24735185659943326	1.9443579621545557	-0.5764899424120764
57	1.9	-0.24531605691338404	1.824763020573955	-0.4944591815881289	-0.25998788456169053	1.8218135553316563	-0.43755514300782344	-0.23568996868515932	1.721160817828959	-0.5603163035697899	-0.2244888295286436	1.567608203881345	-0.5890640500835063	-0.24264769511504852	1.5460580895465732	-0.6377870476963055	-0.24439237972043457	1.5367095976086949	-0.630823515575567	-0.2186146596009567	1.5813509442153366	-0.5935532268689709	-0.22536418335010888	1.830072761112586	-0.5558797001771557	-0.2155954620318903	1.7074009152681788	-0.5934094000686794	-0.21627666166240034	1.5941645523900814	-0.616862509547069	-0.23021826253457997	1.5569008211632052	-0.619952453662403	-0.2256212881260942	1.5484549193899513	-0.5931223414698619	-0.21276590769256737	1.5843985001531642	-0.6147382577701647	-1.7567898011262082	1.889539909292057	1.1899626134089079	-0.2589482821189572	2.0501011962828515	-0.5165174322942936	-0.26438171407648386	1.9704179992940598	-0.39132042147026613	-0.27914996900691896	1.8840712199157355	-0.39275383536222613	-0.2716153437791913	1.9248514242851256	-0.5089990012253017	-0.21920965819291072	1.9915648907467818	-0.5770906776323398	-0.20120735898468411	1.9192066441753912	-0.6331660345882826	-0.24706658275304402	1.9426742340511132	-0.5755305249854342
58	1.9333333333333333	-0.24153029050916328	1.8295370314976915	-0.4996780523032585	-0.2564903561508017	1.8278472267458403	-0.4428642281556966	-0.23568996868515932	1.721160817828959	-0.5603163035697899	-0.2244888295286436	1.567608203881345	-0.5890640500835063	-0.24264769511504852	1.5460580895465732	-0.6377870476963055	-0.24439237972043457	1.5367095976086949	-0.630823515575567	-0.2186146596009567	1.5813509442153366	-0.5935532268689709	-0.22466933120126442	1.8347140075162596	-0.5619541369265623	-0.2155954620318903	1.7074009152681788	-0.5934094000686794	-0.21627666166240034	1.5941645523900814	-0.616862509547069	-0.23021826253457997	1.5569008211632052	-0.619952453662403	-0.22509108858596227	1.5484300747568982	-0.5929308491072722	-0.21276590769256737	1.5843985001531642	-0.6147382577701647	-0.2395265355152554	1.9815270601575141	-0.49868734504688605	-0.25491673626211137	2.0530192475282445	-0.5381359002342433	-0.25874422844060024	1.972368245174035	-0.4064043688702772	-0.2740672267246004	1.8876310446642066	-0.3944310279182953	-0.2641153104661113	1.9225954141011905	-0.5115526062484171	-0.21463653383938364	1.9938502714099795	-0.5990055758101261	-0.2017285737930756	1.916060075987747	-0.6449173252612286	-0.2498273390037083	1.9429375622656115	-0.5850366736224119
59	1.9666666666666666	-0.23840596668090033	1.8326040451211658	-0.5076796149218786	-0.2554464049662751	1.8280075054414544	-0.4483415133980525	-0.23568996868515932	1.721160817828959	-0.5603163035697899	-0.2244888295286436	1.567608203881345	-0.5890640500835063	-0.24264769511504852	1.5460580895465732	-0.6377870476963055	-0.24439237972043457	1.5367095976086949	-0.630823515575567	-0.2186146596009567	1.5813509442153366	-0.5935532268689709	-0.22426769803054053	1.835556367911895	-0.5709391703476281	-0.2155954620318903	1.7074009152681788	-0.5934094000686794	-0.21627666166240034	1.5941645523900814	-0.616862509547069	-0.23021826253457997	1.5569008211632052	-0.619952453662403	-0.22456088904583035	1.5484052301238453	-0.5927393567446827	-0.21276590769256737	1.5843985001531642	-0.6147382577701647	-1.6948403191442079	1.8897649685146993	1.0816502072309973	-0.2516148919071591	2.054413946455253	-0.5456052924424097	-0.25690001906677057	1.9743614361547632	-0.417292823806599	-0.2700323006675966	1.8911052940135815	-0.39926012455662585	-0.25886324070855204	1.920148706698624	-0.5126328362092517	-0.2109525206476122	1.9917564889146788	-0.614486494233792	-0.1986561119914105	1.914807400395538	-0.6528245866174441	-0.24843791500881238	1.9431744559925124	-0.5989873898316145
